<?xml version="1.0" encoding="UTF-8" standalone="no"?>
<!-- Created with Inkscape (http://www.inkscape.org/) -->

<svg
   xmlns:dc="http://purl.org/dc/elements/1.1/"
   xmlns:cc="http://creativecommons.org/ns#"
   xmlns:rdf="http://www.w3.org/1999/02/22-rdf-syntax-ns#"
   xmlns:svg="http://www.w3.org/2000/svg"
   xmlns="http://www.w3.org/2000/svg"
   xmlns:sodipodi="http://sodipodi.sourceforge.net/DTD/sodipodi-0.dtd"
   xmlns:inkscape="http://www.inkscape.org/namespaces/inkscape"
   width="20"
   height="20"
   viewBox="0 0 20 20"
   version="1.1"
   id="svg8"
   inkscape:export-filename="D:\Bethesda Game Modding\Mod Organizer 2\stylesheets\Paper\Dark\dots.png"
   inkscape:export-xdpi="307.20001"
   inkscape:export-ydpi="307.20001"
   inkscape:version="0.92.4 (5da689c313, 2019-01-14)"
   sodipodi:docname="nexus.svg">
  <defs
     id="defs2" />
  <sodipodi:namedview
     id="base"
     pagecolor="#505050"
     bordercolor="#666666"
     borderopacity="1.0"
     inkscape:pageopacity="0"
     inkscape:pageshadow="2"
     inkscape:zoom="22.627417"
     inkscape:cx="7.9684404"
     inkscape:cy="-0.71626886"
     inkscape:document-units="px"
     inkscape:current-layer="layer25"
     showgrid="false"
     units="px"
     borderlayer="true"
     inkscape:showpageshadow="false"
     inkscape:snap-page="true"
     inkscape:snap-bbox="true"
     inkscape:bbox-nodes="true"
     inkscape:snap-bbox-edge-midpoints="true"
     inkscape:snap-bbox-midpoints="true"
     showguides="true"
     inkscape:guide-bbox="true"
     inkscape:window-width="1920"
     inkscape:window-height="1027"
     inkscape:window-x="-8"
     inkscape:window-y="-8"
     inkscape:window-maximized="1"
     inkscape:snap-center="true"
     inkscape:snap-object-midpoints="true"
     inkscape:measure-start="108.073,108.073"
     inkscape:measure-end="112.737,112.737"
     inkscape:snap-intersection-paths="true"
     inkscape:object-paths="true"
     inkscape:snap-smooth-nodes="true"
     inkscape:snap-midpoints="true"
     inkscape:snap-global="true">
    <sodipodi:guide
       position="10,10"
       orientation="1,0"
       id="guide4039"
       inkscape:locked="false"
       inkscape:label=""
       inkscape:color="rgb(0,0,255)" />
    <sodipodi:guide
       position="10,10"
       orientation="0,1"
       id="guide3935"
       inkscape:locked="false"
       inkscape:label="255"
       inkscape:color="rgb(0,0,255)" />
  </sodipodi:namedview>
  <metadata
     id="metadata5">
    <rdf:RDF>
      <cc:Work
         rdf:about="">
        <dc:format>image/svg+xml</dc:format>
        <dc:type
           rdf:resource="http://purl.org/dc/dcmitype/StillImage" />
        <dc:title />
      </cc:Work>
    </rdf:RDF>
  </metadata>
  <g
     inkscape:groupmode="layer"
     id="layer25"
     inkscape:label="Content">
    <path
       style="opacity:1;fill:#000000;fill-opacity:1;fill-rule:nonzero;stroke:none;stroke-width:1.33333325;stroke-linecap:round;stroke-linejoin:miter;stroke-miterlimit:4;stroke-dasharray:none;stroke-dashoffset:120;stroke-opacity:1;paint-order:normal"
       d="M 5.596445,2.2e-5 5.208555,0.182054 C 4.271042,0.624235 3.151604,1.341982 2.187852,2.639084 l -0.239844,0.323828 -0.05,0.39961 c -0.121324,0.964284 0.10759,1.8212 0.433594,2.591797 -0.661669,1.253904 -1.089946,2.618894 -1.091016,4.045702 h 0.002 v 0.01016 c 0.0021,0.349663 0.06661,0.678709 0.107812,1.016797 -0.593677,0.737922 -1.17189,1.659474 -1.30625,2.950781 L -2e-6,14.40354 0.182029,14.791431 c 0.442183,0.937513 1.15993,2.056949 2.457031,3.020703 l 0.323829,0.239844 0.399609,0.05 c 0.964284,0.121324 1.821201,-0.10759 2.591797,-0.433594 1.253904,0.661668 2.618894,1.089944 4.045703,1.091016 v -0.002 h 0.01016 c 0.349664,-0.0021 0.67871,-0.06661 1.016797,-0.107812 0.737923,0.593676 1.659475,1.171888 2.950782,1.30625 l 0.425781,0.04414 0.38789,-0.182032 c 0.937513,-0.442182 2.056951,-1.159928 3.020702,-2.45703 l 0.239454,-0.323828 0.05039,-0.39961 c 0.121323,-0.964237 -0.107592,-1.821154 -0.433595,-2.59175 0.661668,-1.253905 1.089945,-2.618895 1.091017,-4.045704 h -0.002 V 9.989864 C 18.755176,9.6402 18.690766,9.311154 18.649562,8.973067 19.243239,8.235144 19.821447,7.313592 19.955812,6.022285 L 20.000002,5.596505 19.81797,5.208614 C 19.375787,4.271101 18.658042,3.151663 17.360939,2.187911 L 17.03711,1.948458 16.637502,1.898068 C 15.673218,1.776744 14.816301,2.005658 14.045706,2.331662 12.7918,1.669994 11.42681,1.241717 10.000002,1.240647 v 0.002 H 9.989842 C 9.640178,1.244747 9.311133,1.309257 8.973045,1.35046 8.235123,0.756783 7.31357,0.178569 6.022264,0.044211 Z m 0.247657,1.058594 c 0.0066,-1.3e-4 0.01328,-1.3e-4 0.01992,0 0.01474,1.45e-4 0.02947,9.33e-4 0.04414,0.0023 0.0026,-2e-5 0.0052,-2e-5 0.0078,0 0.01006,9.34e-4 0.02009,0.0023 0.03008,0.0039 0.0056,6.17e-4 0.01003,0.0033 0.01563,0.0039 1.35324,0.154103 2.239719,0.818897 2.949219,1.474608 0.08635,0.07921 0.142886,0.185666 0.160156,0.301563 0.307808,-0.04327 0.618089,-0.06662 0.928906,-0.06992 1.235795,9.34e-4 2.450689,0.318886 3.528515,0.923438 0.598751,-0.416102 1.269253,-0.722632 2.064063,-0.799219 0.290833,-0.02802 0.597772,-0.02652 0.917187,0.01367 0.08758,0.0113 0.17075,0.04508 0.241409,0.09805 1.143385,0.849539 1.723073,1.758141 2.127734,2.609765 0.0041,0.0086 0.01037,0.01681 0.01445,0.02539 0.0026,0.0067 0.0051,0.01349 0.0074,0.02031 0.0069,0.01506 0.01298,0.03044 0.01836,0.04609 0,4.84e-4 0,10e-4 0,0.0016 7e-6,0.0014 7e-6,0.0029 0,0.0043 0.0047,0.01504 0.0088,0.03029 0.01212,0.0457 0.0033,0.01524 0.0059,0.03062 0.0078,0.04609 10e-7,0.0013 10e-7,0.0026 0,0.0039 8.33e-4,0.01 0.0018,0.02003 0.0023,0.03008 1.28e-4,0.0066 1.28e-4,0.01328 0,0.01992 -1.45e-4,0.01474 -8.34e-4,0.02947 -0.0023,0.04414 2e-5,0.0026 2e-5,0.0052 0,0.0078 -0.0013,0.01006 -0.0023,0.02009 -0.0039,0.03008 -6.66e-4,0.0056 -0.0033,0.01003 -0.0039,0.01563 -0.154105,1.35324 -0.818898,2.239719 -1.47461,2.949219 -0.07921,0.08635 -0.185666,0.142886 -0.301565,0.160156 0.04327,0.307809 0.06663,0.618089 0.06992,0.928906 -8.33e-4,1.235796 -0.318888,2.45069 -0.92344,3.528516 0.416104,0.59875 0.72263,1.269252 0.799222,2.064062 0.02802,0.290833 0.02652,0.597772 -0.01365,0.917188 -0.01128,0.08758 -0.04507,0.170749 -0.09805,0.241406 -0.849526,1.143384 -1.758128,1.723074 -2.609752,2.127734 -0.0086,0.0041 -0.01681,0.01038 -0.02539,0.01446 -0.0067,0.0026 -0.01349,0.0051 -0.02031,0.0074 -0.01506,0.0069 -0.03044,0.01298 -0.04609,0.01836 -5.17e-4,0 -10e-4,0 -0.0016,0 -0.0014,6e-6 -0.0029,6e-6 -0.0043,0 -0.01504,0.0047 -0.03029,0.0088 -0.0457,0.01212 -0.01524,0.0033 -0.03062,0.0059 -0.04609,0.0078 -0.0013,4e-6 -0.0026,4e-6 -0.0039,0 -0.01,0.001 -0.02003,0.0018 -0.03008,0.0023 -0.0066,1.3e-4 -0.01328,1.3e-4 -0.01992,0 -0.01474,-1.44e-4 -0.02947,-10e-4 -0.04414,-0.0023 -0.0026,2e-5 -0.0052,2e-5 -0.0078,0 -0.01006,-0.001 -0.02009,-0.0023 -0.03008,-0.0039 -0.0056,-6e-4 -0.01002,-0.0033 -0.01563,-0.0039 -1.353237,-0.154101 -2.239716,-0.818895 -2.949216,-1.474607 -0.08635,-0.07921 -0.142886,-0.185664 -0.160157,-0.301563 -0.307847,0.04323 -0.618127,0.06659 -0.928944,0.06989 -1.235796,-0.001 -2.450689,-0.318887 -3.528516,-0.923438 -0.59875,0.416102 -1.269252,0.722631 -2.064062,0.799219 -0.290833,0.02802 -0.597772,0.02652 -0.917187,-0.01367 -0.08758,-0.0113 -0.17075,-0.04508 -0.241407,-0.09805 -1.143383,-0.849538 -1.723074,-1.75814 -2.127734,-2.609765 -0.0041,-0.0086 -0.01039,-0.01681 -0.01445,-0.02539 -0.0026,-0.0067 -0.0051,-0.01349 -0.0074,-0.02031 -0.0069,-0.01506 -0.01299,-0.03044 -0.01836,-0.04609 -10e-7,-5.17e-4 -10e-7,-0.0011 0,-0.0016 -6e-6,-0.0014 -6e-6,-0.0029 0,-0.0043 -0.0047,-0.01504 -0.0088,-0.03029 -0.01211,-0.0457 -0.0033,-0.01524 -0.0059,-0.03062 -0.0078,-0.04609 -5e-6,-0.0013 -5e-6,-0.0026 0,-0.0039 -0.0011,-0.01 -0.0019,-0.02003 -0.0023,-0.03008 -1.29e-4,-0.0066 -1.29e-4,-0.01328 0,-0.01992 1.45e-4,-0.01474 8.83e-4,-0.02947 0.0023,-0.04414 -2e-5,-0.0026 -2e-5,-0.0052 0,-0.0078 10e-4,-0.01006 0.0023,-0.02009 0.0039,-0.03008 6.16e-4,-0.0056 0.0033,-0.01002 0.0039,-0.01563 0.154105,-1.35324 0.818899,-2.239719 1.47461,-2.949219 0.07921,-0.08635 0.185665,-0.142886 0.301562,-0.160156 C 2.801605,10.621027 2.778245,10.310747 2.774945,9.99993 2.775878,8.764134 3.093831,7.549241 3.698382,6.471415 3.28228,5.872664 2.975751,5.202162 2.899164,4.407352 2.871144,4.116519 2.872644,3.80958 2.912834,3.490164 c 0.0113,-0.08758 0.04508,-0.170749 0.09805,-0.241406 0.849538,-1.143383 1.75814,-1.723074 2.609765,-2.127734 0.0086,-0.0041 0.01681,-0.01039 0.02539,-0.01445 0.0067,-0.0026 0.01349,-0.0051 0.02031,-0.0074 0.01506,-0.0069 0.03044,-0.01299 0.04609,-0.01836 4.83e-4,0 0.001,0 0.0016,0 0.0014,-6e-6 0.0029,-6e-6 0.0043,0 0.01504,-0.0047 0.03029,-0.0088 0.0457,-0.01211 0.01524,-0.0033 0.03062,-0.0059 0.04609,-0.0078 0.0013,-4e-6 0.0026,-4e-6 0.0039,0 0.01,-0.0011 0.02003,-0.0019 0.03008,-0.0024 z m 0.01992,0.511718 c -0.819816,0.386672 -1.63846,0.900154 -2.44375,1.983985 -0.01769,0.140556 -0.02686,0.277589 -0.02852,0.411328 -0.0016,0.133738 0.0045,0.26411 0.0168,0.391797 0.172253,1.787608 1.702742,2.987332 3.048827,4.209765 L 5.830036,9.275022 9.372614,9.253142 8.942926,5.764079 8.201911,6.601579 C 6.973607,5.228466 5.189448,3.11724 5.864021,1.57033 Z m 0.501562,0.103907 c -0.0071,0.03433 -0.0177,0.06784 -0.03164,0.1 -0.05929,0.135973 -0.0921,0.283831 -0.100391,0.44336 -0.0026,0.05087 -0.0026,0.103092 0,0.15625 0.01851,0.372104 0.163795,0.798189 0.39375,1.25039 C 7.221139,3.309203 7.85604,3.078593 8.513631,2.939085 l 0.05,-0.01992 C 7.972376,2.372739 7.313009,1.890425 6.365585,1.674243 Z m 2.04375,0.763671 -0.03594,0.01172 -0.002,0.0039 c 0.01351,-0.0029 0.02436,-0.01275 0.03789,-0.01563 z m 7.625,0.953907 c -0.133739,-0.0016 -0.264111,0.0045 -0.391797,0.0168 -1.787609,0.172254 -2.987333,1.702743 -4.209766,3.048828 l -0.707813,-0.627342 0.02188,3.542578 3.489063,-0.429687 -0.8375,-0.741016 C 14.771514,6.973676 16.882741,5.189907 18.42965,5.86448 18.042981,5.044664 17.529498,4.22563 16.445666,3.420339 16.305111,3.402649 16.168076,3.393479 16.034338,3.391829 Z m 1.591798,2.841797 c -0.372108,0.01851 -0.798191,0.163794 -1.250391,0.39375 0.315038,0.593835 0.545648,1.228736 0.685155,1.886327 l 0.01994,0.05 c 0.546427,-0.591255 1.02874,-1.250623 1.244923,-2.198046 -0.03433,-0.0071 -0.06784,-0.0177 -0.1,-0.03164 -0.135974,-0.05929 -0.28383,-0.0921 -0.443361,-0.10039 -0.05086,-0.0026 -0.103091,-0.0026 -0.15625,0 z m -0.07969,2.13789 c 0.0029,0.01351 0.01273,0.02436 0.01562,0.03789 l -0.0117,-0.03594 z m -8.293751,2.255859 -3.488671,0.429688 0.837499,0.741016 c -1.373113,1.228304 -3.48434,3.012462 -5.031249,2.33789 0.386671,0.819816 0.900153,1.638459 1.983984,2.44375 0.140556,0.01769 0.27759,0.02686 0.411328,0.02852 0.133738,0.0016 0.26411,-0.0045 0.391797,-0.0168 1.787608,-0.172254 2.987332,-1.702743 4.209765,-3.048829 l 0.707813,0.627343 z m 4.917187,0.09766 -3.542578,0.02227 0.429688,3.488672 0.741016,-0.8375 c 1.228304,1.373114 3.012072,3.48434 2.337499,5.03125 0.819815,-0.386672 1.638851,-0.900154 2.444141,-1.983985 0.01768,-0.140556 0.02686,-0.277589 0.02852,-0.411328 0.0017,-0.133739 -0.0045,-0.26411 -0.0168,-0.391797 -0.172253,-1.787608 -1.702744,-2.987332 -3.04883,-4.209765 z m -11.25078,0.711329 c -0.546426,0.591255 -1.028741,1.250623 -1.244922,2.198046 0.03433,0.0071 0.06784,0.0177 0.1,0.03164 0.135973,0.05929 0.28383,0.0921 0.443359,0.10039 0.05087,0.0026 0.103092,0.0026 0.15625,0 C 2.74589,13.74792 3.171974,13.602636 3.624176,13.37268 3.309138,12.778845 3.078528,12.143944 2.93902,11.486353 Z m -0.48125,0.154296 0.01172,0.03594 0.0039,0.002 c -0.0029,-0.01351 -0.01275,-0.02436 -0.01563,-0.03789 z m 10.934765,4.785157 c -0.593835,0.315038 -1.228737,0.545648 -1.886328,0.685156 l -0.05,0.01992 c 0.591255,0.546424 1.250623,1.02874 2.198046,1.244922 0.0071,-0.03433 0.0177,-0.06784 0.03164,-0.1 0.05929,-0.135974 0.0921,-0.28383 0.100391,-0.44336 0.0026,-0.05087 0.0026,-0.103092 0,-0.15625 -0.01851,-0.372106 -0.163795,-0.798189 -0.39375,-1.25039 z m -1.744141,1.170702 c -0.01351,0.0029 -0.02436,0.01274 -0.03789,0.01562 l 0.03594,-0.01172 z"
       id="path3849"
       inkscape:connector-curvature="0"
       sodipodi:nodetypes="cccccccccccccccccccccccccccccccccccccccccccccccccccccccscccccccccccccccccccccscccccccccccccccccccccscccccccccccccccccccccscccccccccccccccccccccccccsccccccccccccccccccccccccccccccccccccccccccccccccccccccsccccccccccccccccccc" />
    <g
       style="fill:#505050;fill-opacity:1;stroke-width:0.19550784"
       id="g4412"
       inkscape:transform-center-x="-5.0913502"
       inkscape:transform-center-y="-4.4596393"
       transform="matrix(5.1148849,0,0,5.1148849,12.851148,-95.148848)" />
    <g
       transform="matrix(0,4.9102895,-4.9102895,0,113.1029,-93.102895)"
       inkscape:transform-center-y="24"
       inkscape:transform-center-x="-21.022466"
       id="g4064"
       style="fill:#505050;fill-opacity:1;stroke-width:0.20365398" />
    <g
       style="fill:#505050;fill-opacity:1;stroke-width:0.20365398"
       id="g4068"
       inkscape:transform-center-x="24.000005"
       inkscape:transform-center-y="21.022466"
       transform="matrix(-4.9102895,0,0,-4.9102895,113.10289,5.1029002)" />
    <g
       transform="matrix(-2.719147e-8,-4.9102894,4.9102894,-2.719147e-8,14.8971,5.1028901)"
       inkscape:transform-center-y="-24.000003"
       inkscape:transform-center-x="21.022466"
       id="g4072"
       style="fill:#505050;fill-opacity:1;stroke-width:0.20365398" />
  </g>
</svg>
