<?xml version="1.0" encoding="iso-8859-1"?>
<!-- Generator: Adobe Illustrator 19.0.0, SVG Export Plug-In . SVG Version: 6.00 Build 0)  -->
<svg version="1.1" id="Layer_1"
	xmlns="http://www.w3.org/2000/svg"
	xmlns:xlink="http://www.w3.org/1999/xlink" x="0px" y="0px" viewBox="0 0 511.999 511.999" style="enable-background:new 0 0 511.999 511.999;" xml:space="preserve">
	<path d="M420.792,140.277c-22.891-24.035-53.77-37.81-86.947-38.787c-28.264-0.833-55.419,7.711-77.845,24.265
			c-22.425-16.555-49.587-25.091-77.844-24.265c-33.177,0.977-64.056,14.752-86.947,38.787L0,236.046l14.127,27.312
			c24.1,46.595,60.127,84.768,104.187,110.397c41.398,24.08,89.009,36.809,137.685,36.809c48.673,0,96.289-12.73,137.685-36.809
			c44.06-25.629,80.087-63.803,104.187-110.397l14.127-27.312L420.792,140.277z M115.053,162.986
			c16.868-17.712,39.622-27.863,64.072-28.583c24.462-0.717,47.761,8.075,65.641,24.764l11.234,10.484l11.234-10.484
			c17.881-16.689,41.193-25.482,65.641-24.764c24.448,0.72,47.203,10.871,64.072,28.583l56.18,58.988h-65.413
			c-29.757,0-43.653-5.558-59.742-11.994c-16.814-6.725-35.872-14.349-71.971-14.349c-36.099,0-55.157,7.623-71.971,14.349
			c-16.09,6.435-29.984,11.994-59.742,11.994H58.873L115.053,162.986z M334.301,247.404c-17.641,13.328-40.295,27.255-78.3,27.255
			c-38.005,0-60.659-13.926-78.3-27.255c6.837-2.163,12.829-4.558,18.558-6.85c16.09-6.435,29.984-11.994,59.742-11.994
			c29.757,0,43.653,5.558,59.742,11.994C321.472,242.845,327.464,245.241,334.301,247.404z M377.128,345.292
			c-36.377,21.16-78.263,32.343-121.129,32.343s-84.752-11.185-121.129-32.344c-36.521-21.243-66.783-52.398-87.909-90.39h82.813
			c4.004,0,12.198,6.418,20.121,12.625c20.366,15.953,51.144,40.06,106.104,40.06s85.737-24.108,106.104-40.06
			c7.924-6.207,16.117-12.625,20.121-12.625h82.813C443.912,292.895,413.65,324.048,377.128,345.292z"/>
</svg>
