<?xml version='1.0' encoding='iso-8859-1'?>
<!DOCTYPE svg PUBLIC '-//W3C//DTD SVG 1.1//EN' 'http://www.w3.org/Graphics/SVG/1.1/DTD/svg11.dtd'>
<svg version="1.1"
  xmlns="http://www.w3.org/2000/svg" viewBox="0 0 460.979 460.979"
  xmlns:xlink="http://www.w3.org/1999/xlink" enable-background="new 0 0 460.979 460.979">
  <path d="m230.489,0c-101.453,0-183.991,82.539-183.991,183.992v230.374c7.10543e-15,25.703 20.911,46.613 46.613,46.613 46.587,0 85.784-32.225 96.486-75.553 12.871,4.249 26.616,6.557 40.892,6.557 14.276,0 28.021-2.308 40.892-6.556 10.703,43.328 49.899,75.553 96.486,75.553 25.703,0 46.613-20.911 46.613-46.613v-230.375c0.001-101.453-82.537-183.992-183.991-183.992zm0,356.982c-52.793,0-95.744-42.951-95.744-95.744v-68.589c34.043-3.18 58.167-15.386 74.502-28.042 14.408,51.202 61.34,88.925 116.986,89.351v7.28c0.001,52.793-42.95,95.744-95.744,95.744zm148.992,57.383c0,6.404-5.209,11.613-11.613,11.613-32.883,0-60.069-24.786-63.901-56.653 34.542-23.556 57.267-63.216 57.267-108.088v-26.077c0-5.119-2.242-9.982-6.134-13.307-3.893-3.325-9.046-4.779-14.103-3.978-4.553,0.721-9.199,1.086-13.809,1.086-48.245,0-87.495-39.25-87.495-87.495 0-1.926 0.078-3.964 0.239-6.233 0.595-8.386-4.78-16.168-12.909-18.315-8.102-2.142-16.508,1.61-20.151,9.151-1.451,2.69-24.007,42.378-89.627,42.378-9.665,0-17.5,7.835-17.5,17.5v85.291c0,44.872 22.725,84.532 57.267,108.088-3.832,31.867-31.018,56.653-63.901,56.653-6.404,0-11.613-5.209-11.613-11.613v-230.374c7.10543e-14-82.155 66.837-148.992 148.992-148.992 82.154,0 148.991,66.837 148.991,148.992v230.373z"/>
</svg>
