<?xml version="1.0" encoding="UTF-8" standalone="no"?>
<svg height="48" width="48" version="1.1" id="svg11" sodipodi:docname="cloud-search.svg" xml:space="preserve" inkscape:version="1.2 (dc2aedaf03, 2022-05-15)"
  xmlns:inkscape="http://www.inkscape.org/namespaces/inkscape"
  xmlns:sodipodi="http://sodipodi.sourceforge.net/DTD/sodipodi-0.dtd"
  xmlns="http://www.w3.org/2000/svg"
  xmlns:svg="http://www.w3.org/2000/svg">
  <defs id="defs15" />
  <sodipodi:namedview id="namedview13" pagecolor="#ffffff" bordercolor="#000000" borderopacity="0.25" inkscape:showpageshadow="2" inkscape:pageopacity="0.0" inkscape:pagecheckerboard="0" inkscape:deskcolor="#d1d1d1" showgrid="false" inkscape:zoom="16.958333" inkscape:cx="23.970516" inkscape:cy="24" inkscape:window-width="1920" inkscape:window-height="1017" inkscape:window-x="-8" inkscape:window-y="-8" inkscape:window-maximized="1" inkscape:current-layer="svg11" />
  <path fill="#ffffff" d="M 12.65,41.1 C 9.4833333,41.1 6.7583333,39.975 4.475,37.725 2.1916667,35.475 1.05,32.733333 1.05,29.5 c 0,-2.733333 0.85,-5.2 2.55,-7.4 1.7,-2.2 3.9,-3.516667 6.6,-3.95 0.733333,-3.333333 2.4,-6.041667 5,-8.125 2.6,-2.0833333 5.583333,-3.125 8.95,-3.125 3.8,0 7.058333,1.375 9.775,4.125 2.716667,2.75 4.191667,6.058333 4.425,9.925 v 1.2 c 2.5,0.266667 4.558333,1.283333 6.175,3.05 1.616667,1.766667 2.425,3.916667 2.425,6.45 0,2.633333 -0.941667,4.866667 -2.825,6.7 C 42.241667,40.183333 40,41.1 37.4,41.1 Z m 0,-4.55 H 37.4 c 1.366667,0 2.541667,-0.5 3.525,-1.5 0.983333,-1 1.475,-2.166667 1.475,-3.5 0,-1.4 -0.491667,-2.583333 -1.475,-3.55 -0.983333,-0.966667 -2.158333,-1.45 -3.525,-1.45 h -3.55 v -4.7 c 0,-2.933333 -0.958333,-5.391667 -2.875,-7.375 C 29.058333,12.491667 26.716667,11.5 23.95,11.5 c -2.866667,0 -5.258333,1.058333 -7.175,3.175 C 14.858333,16.791667 13.9,19.35 13.9,22.35 h -1.4 c -1.9,0 -3.525,0.675 -4.875,2.025 C 6.275,25.725 5.6,27.4 5.6,29.4 c 0,2 0.7,3.691667 2.1,5.075 1.4,1.383333 3.05,2.075 4.95,2.075 z M 24,24 v 0 0 0 0 0 0 0 0 0 z" id="path9" sodipodi:nodetypes="sssscsssccssssssssssscsssscssssscccccccccccc" />
  <path fill="#ffffff" d="m 31.128195,35.163251 -5.776296,-5.776297 q -0.737399,0.56534 -1.683729,0.88488 -0.94633,0.31954 -2.077008,0.31954 -2.826699,0 -4.756229,-1.929529 -1.929528,-1.929531 -1.929528,-4.707067 0,-2.77754 1.929528,-4.707068 1.92953,-1.929528 4.707068,-1.929528 2.777538,0 4.707068,1.929528 1.929529,1.929528 1.929529,4.707068 0,1.130677 -0.31954,2.052429 -0.31954,0.921748 -0.93404,1.757467 l 5.850036,5.800878 q 0.31954,0.344119 0.31954,0.81114 0,0.467019 -0.344118,0.786559 -0.34412,0.344119 -0.81114,0.344119 -0.467019,0 -0.811141,-0.344119 z m -9.586194,-6.808656 q 1.868079,0 3.133948,-1.265869 1.26587,-1.26587 1.26587,-3.133948 0,-1.8435 -1.26587,-3.121659 -1.265869,-1.278159 -3.109368,-1.278159 -1.892659,0 -3.158528,1.278159 -1.265869,1.278159 -1.265869,3.121659 0,1.868078 1.265869,3.133948 1.265869,1.265869 3.133948,1.265869 z" id="path277" style="stroke-width:0.491599" />
</svg>
