<?xml version="1.0" encoding="UTF-8"?>
<svg width="301px" height="225px" viewBox="0 0 301 225" version="1.1" xmlns="http://www.w3.org/2000/svg" xmlns:xlink="http://www.w3.org/1999/xlink">
    <title>Foundation/Logo/Qt-logo</title>
    <g id="FOUNDATIONS:-Typo,-Colors,-Logos..." stroke="none" stroke-width="1" fill="none" fill-rule="evenodd">
        <g id="Logos" transform="translate(-177.000000, -251.000000)" fill="#ffffff">
            <g id="Qt-Logo" transform="translate(177.000000, 251.000000)">
                <path d="M111.875577,57.4468085 C100.078614,57.4468085 91.9427773,61.4554263 87.4680671,69.5781519 C83.0950549,77.7008774 80.8576998,90.5706504 80.8576998,108.398451 C80.8576998,126.120761 82.9933569,138.885044 87.2646712,146.48032 C91.5359854,154.075596 99.7735201,157.978723 111.875577,157.978723 C123.977634,157.978723 132.113471,154.181085 136.384785,146.6913 C140.554401,139.201514 142.690058,126.437231 142.690058,108.60943 C142.690058,90.6761403 140.554401,77.7008774 136.181389,69.5781519 C131.808377,61.4554263 123.67254,57.4468085 111.875577,57.4468085" id="Fill-1"></path>
                <path d="M219.226236,173.77452 C208.479862,173.77452 201.11092,171.275665 197.118386,166.277956 C193.127899,161.280247 191.08097,151.804381 191.08097,137.853484 L191.08097,92.8740994 L176.547779,92.8740994 L176.547779,74.9656407 L191.08097,74.9656407 L191.08097,46.8535255 L211.652601,46.8535255 L211.652601,74.9656407 L237.853284,74.9656407 L237.853284,92.9771771 L211.652601,92.9771771 L211.652601,135.562867 C211.652601,143.474866 212.266679,148.680813 213.39249,151.180709 C214.517277,153.783682 217.486347,155.03311 222.091936,155.03311 L237.648592,154.407355 L238.568686,171.275665 C230.177303,172.940527 223.728455,173.77452 219.226236,173.77452 L219.226236,173.77452 Z M159.967659,193.972554 L140.419492,203.240182 L123.532333,175.022906 C121.076019,175.751739 117.289201,176.169256 111.967188,176.169256 C92.2143285,176.169256 78.3975617,170.755071 70.6192338,159.925659 C62.8409059,149.09833 58.9517419,131.918704 58.9517419,108.595019 C58.9517419,85.1682562 62.9432523,67.7814335 70.8239266,56.4324685 C78.704601,45.0824622 92.4190213,39.3559202 111.967188,39.3559202 C131.515354,39.3559202 145.229774,44.9793844 153.008102,56.3283495 C160.888776,67.5731956 164.77794,84.9610595 164.77794,108.491941 C164.77794,124.004623 163.140398,136.498896 159.967659,145.974762 C156.69155,155.553705 151.472906,162.842031 144.103964,167.83974 L159.967659,193.972554 Z M271.42291,0 L260.983575,0 L41.6551969,0 L0.000203842942,42.3764108 L0.000203842942,184.081254 L0.000203842942,195.639499 L0.000203842942,225 L28.8618943,225 L39.3012292,225 L258.629608,225 L300.284601,182.62463 L300.284601,40.9177044 L300.284601,29.3615426 L300.284601,0 L271.42291,0 Z" id="Fill-3"></path>
            </g>
        </g>
    </g>
</svg>